<svg xmlns="http://www.w3.org/2000/svg" viewBox="0 0 410 410"><circle fill="#FFF" cx="203.5" cy="206.5" r="179.5"/><g fill="#3C9A98"><path d="M149.4 242.4c-28.6-.3-54.2 17.4-54.2 38.8 0 21.7 20.7 39.9 49.3 39.9 40.2 0 54.2-17 54.2-38.7 0-2.6-.3-5.2-.9-7.7-3.1-12.3-14.3-18.4-29.8-29.2-5.7-2-12-3.1-18.6-3.1zm-9.5-139.6c-19.2-.6-32.1 18.7-28.8 43.9 3.3 25.2 21.6 46.1 40.8 46.7 19.2.6 32.1-19.4 28.8-44.6-3.3-25.2-21.6-45.4-40.8-46z"/><path d="M204.5 0C91.3 0-.5 91.8-.5 205s91.8 205 205 205 205-91.8 205-205S317.7 0 204.5 0zm3 148.5c0 15.7-8.7 28.1-21 37.8-12 9.4-14.3 13.3-14.3 21.3 0 6.8 12.9 18.4 19.6 23.2 19.7 13.9 26.1 26.8 26.1 48.4 0 26.9-26.1 53.7-73.2 53.7-41.4 0-76.3-16.8-76.3-43.8 0-27.3 31.8-53.7 73.2-53.7 4.5 0 8.6-.2 12.9-.2-5.7-5.5-10.1-12.3-10.1-20.6 0-4.9 1.6-9.8 3.8-14-2.2.2-4.5 0-6.9 0-34 0-56.8-24.7-56.8-54.7 0-29.3 31.4-55.7 64.8-55.7h74.5l-16.7 16.4h-23.6c15.6 0 24 23.1 24 41.9zm95.4 7.3v41h-8.2v-41h-49.2v-16.4h49.2V90.2h8.2v49.2h49.2v16.4h-49.2z"/></g></svg>