<svg id="Layer_1" xmlns="http://www.w3.org/2000/svg" viewBox="-159 0 410 410"><style>.st0{fill:red}.st1{fill:#ffe53f}</style><circle class="st0" cx="45.5" cy="202.5" r="149.5"/><path class="st1" d="M46 0C-67.2 0-159 91.8-159 205s91.8 205 205 205 205-91.8 205-205S159.2 0 46 0zM-4.2 290h-41.5V156.4h41.5V290zm-21-150c-13.1 0-21.6-9.3-21.6-20.8 0-11.7 8.7-20.7 22.1-20.7s21.6 9 21.8 20.7c.1 11.5-8.4 20.8-22.3 20.8zm172.6 150h-41.5v-74c0-17.2-6-28.9-21-28.9-11.5 0-18.3 7.9-21.3 15.5-1.1 2.7-1.4 6.6-1.4 10.4v77H20.7v-91c0-16.7-.5-30.6-1.1-42.6h36.1l1.9 18.6h.8c5.5-8.7 18.9-21.6 41.3-21.6 27.3 0 47.8 18.3 47.8 57.6l-.1 79z"/></svg>