<svg xmlns="http://www.w3.org/2000/svg" viewBox="0 0 500 100"><path fill="#FFF" d="M290.926 21.761l-6.292 4.608s-2.032-4.608-6.899-4.608l-6.413 8.268.726.814s1.09-3.253 4.357-.273v41.948l4.794 5.37 4.118-4.631-.684-.763V52.799l2.904 4.34 10.287-8.407V27.86c.001 0-3.601-6.099-6.898-6.099m-1.464 29.036l-1.056 1.18-3.954-4.966-.012-17.507s2.048-2.851 5.022.33v20.963zm69.445-28.973l-11.422 16.745v33.725l4.955 5.561 4.25-4.805-.69-.756V55.315s2.007-3.952 4.707.078v17.068l4.849 5.427 4.308-4.823-.713-.758V52.833s-2.74-6.822-7.822-6.822l-5.191 5.581V30.816l1.177-1.783s1.454-1.086 3.045 1.629c1.801 2.324 7.269 5.27 10.314-3.722 0 0-2.632 1.241-4.637-1.627-2.009-2.868-2.809-3.425-7.13-3.489m-34.322 24.263l-6.925 9.486.661.791s1.379-2.462 2.941-.524v16.878l4.555 5.112 3.953-4.424-.684-.767V55.78s3.391-4.032 5.466-.078V72.37l4.944 5.568 4.269-4.805-.698-.763V53.066s-1.979-7.055-8.237-7.055l-5.607 6.9v-1.55s-.623-5.274-4.638-5.274m-7.894 20.631s-.622-.562-1.039.078c-.553.852-6.286 8.209-12.137 1.479v-4.032s5.193-4.574 8.653-.233l4.568-4.187v-8.54s-1.385-5.196-8.72-5.196l-12.528 7.831v16.06l7.014 7.852 14.259-7.929c-.001 0-.07-2.098-.07-3.183m-13.176-11.793s2.907-4.498 5.193-.929v5.284s-2.285-.387-4.706 3.024l-.486-.542v-6.837zM133.577 21.761l-6.294 4.608s-2.031-4.608-6.898-4.608l-6.414 8.268.727.814s1.089-3.253 4.356-.273v41.248l5.375 6.012 4.103-4.623-1.249-1.411V52.799l2.905 4.34 10.286-8.407V27.86s-3.602-6.099-6.897-6.099m-1.465 29.036l-1.054 1.18-3.955-4.966-.014-17.507s2.048-2.851 5.024.33v20.963zm24.125-28.973l-11.421 16.745v33.725l4.925 5.527 4.268-4.763-.679-.764V55.315s2.007-3.952 4.707.078V72.37l4.838 5.433 4.313-4.832-.708-.756V52.833s-2.74-6.822-7.822-6.822l-5.191 5.581V30.816l1.176-1.783s1.454-1.086 3.047 1.629c1.8 2.324 7.268 5.27 10.313-3.722 0 0-2.629 1.241-4.638-1.627-2.006-2.868-2.809-3.425-7.128-3.489"/><path fill="#FFF" d="M174.164 46.087l-6.927 9.486.662.791s1.379-2.462 2.942-.524v16.878l4.555 5.112 3.952-4.424-.685-.767V55.78s3.392-4.032 5.468-.078V72.37l4.944 5.568 4.271-4.805-.701-.763V53.066s-1.978-7.055-8.237-7.055l-5.606 6.9v-1.55s-.624-5.274-4.638-5.274m50.652-.076l-6.277 9.529s.6.385.741.21c.971-1.21 1.955-2.063 3.043-.855V72.45l4.824 5.437 4.238-4.76-.688-.754V54.925s2.493-2.712 4.984 1.321v16.305l4.719 5.299 4.121-4.633-.673-.744V56.168s1.731-4.496 5.192.697v15.692l4.732 5.293 4.08-4.596-.715-.774V53.918s-.692-7.907-8.72-7.907l-4.984 7.364s-1.565-7.364-7.475-7.364l-5.398 6.512c.001 0-1.009-6.512-5.744-6.512m-16.978-.077l-10.865 6.822.068 17.222 7.016 7.852 13.749-7.773V52.6s-2.215-6.666-9.968-6.666m1.454 25.828s-1.661 2.325-4.153-1.938l.012-16.293s2.342-1.861 4.141 2.095v16.136zm255.762-49.938l-6.507 8.76v7.209h-3.529l-4.568 6.358.901.62s.207-1.785 7.196-1.785v26.891l7.256 8.122s5.827-3.472 5.135-12.541h-.762s-.76 4.961-3.252 3.255V42.367h4.154V37.87h-4.154V23.296c-.001 0-.249-1.411-1.87-1.472m-62.026-.063l-6.295 4.608s-2.029-4.608-6.896-4.608l-6.415 8.268.726.814s1.091-3.253 4.357-.273v41.932l4.789 5.386 4.123-4.624-.684-.786V52.799l2.906 4.34 10.288-8.407V27.86c-.001 0-3.604-6.099-6.899-6.099m-1.465 29.036l-1.056 1.18-3.954-4.966-.015-17.507s2.048-2.851 5.024.33v20.963zm18.426-4.863l-10.868 6.822.07 17.222 7.019 7.852 13.746-7.773V52.6s-2.215-6.666-9.967-6.666m1.454 25.828s-1.66 2.325-4.154-1.938l.015-16.293s2.338-1.861 4.139 2.095v16.136z"/><path fill="#FFF" d="M442.366 46.011l-7.902 4.945-.009 11.569 2.929 3.261s2.974-4.439 7.613-1.88c0 0 2.839.872 2.631 5.987 0 0-.416 1.938-2.423.854 0 0-5.675-4.652-8.721-1.318 0 0-2.006 2.17-2.145 4.884 0 0 2.975-2.227 10.312 3.433 1.213-1.356 9.483-8.006 9.483-8.006s1.869-10.485-6.784-12.81c0 0 .278 3.411-3.875 3.721 0 0-3.045-.835-4.015-2.772v-5.977l.484-.231s3.738 4.109 8.999 2.248c0 0 4.153-2.87 1.731-7.831 0-.001-2.354 4.031-8.308-.077M68.989 21.824L57.568 38.569v33.725l4.955 5.561 4.251-4.805-.692-.756V55.315s2.008-3.952 4.708.078V72.37l4.849 5.427 4.307-4.823-.712-.759V52.833s-2.74-6.822-7.821-6.822l-5.192 5.581V30.816l1.177-1.783s1.454-1.086 3.046 1.629c1.8 2.324 7.268 5.27 10.314-3.722 0 0-2.63 1.241-4.638-1.627-2.009-2.868-2.81-3.425-7.131-3.489m35.708 44.894s-.623-.562-1.039.078c-.553.852-6.287 8.209-12.136 1.479v-4.032s5.192-4.574 8.652-.233l4.568-4.187v-8.54s-1.384-5.196-8.72-5.196l-12.529 7.831v16.06l7.016 7.852 14.258-7.929c-.001 0-.07-2.098-.07-3.183M91.522 54.925s2.907-4.498 5.192-.929v5.284s-2.285-.387-4.707 3.024l-.484-.542v-6.837zM44.814 38.569v33.725l4.953 5.561 4.251-4.805-.691-.756-.051-41.69z"/><path fill="#FFF" d="M29.644 31.231l.514-1.433s20.36 6.214 23.504-7.709l9.846 2.971-.563 2.186-1.814-.604c-.001 0-6.373 18.754-31.487 4.589"/></svg>