<svg xmlns="http://www.w3.org/2000/svg" viewBox="-352 194 24 24"><path d="M-347.9 208.1v-5.7h1.1l1.4 4.1c.1.4.2.7.3.8.1-.2.2-.5.3-.9l1.4-4h1v5.7h-.7v-4.8l-1.7 4.8h-.7l-1.7-4.9v4.9h-.7zm6.7 0v-5.7h2.1c.4 0 .8.1 1.1.2s.5.3.6.5.2.5.2.8c0 .2-.1.5-.2.7s-.3.4-.6.5c.3.1.6.3.8.5s.3.5.3.9c0 .3-.1.5-.2.7s-.3.4-.4.5-.4.2-.6.3c-.3.1-.6.1-.9.1h-2.2zm.8-3.3h1.2c.3 0 .6 0 .7-.1.2-.1.3-.2.4-.3s.1-.3.1-.5 0-.4-.1-.5-.2-.2-.4-.3-.5-.1-.9-.1h-1.1v1.8zm0 2.6h1.9c.2 0 .3-.1.4-.2l.3-.3c.1-.1.1-.3.1-.5s-.1-.4-.2-.6-.3-.3-.5-.3-.5-.1-.8-.1h-1.3v2zm3.9.7l2.2-5.7h.8l2.3 5.7h-.9l-.7-1.7h-2.4l-.6 1.7h-.7zm1.7-2.3h1.9l-.6-1.6c-.2-.5-.3-.9-.4-1.2-.1.4-.2.7-.3 1.1l-.6 1.7z" fill="#FFF"/></svg>