<svg id="Layer_1" xmlns="http://www.w3.org/2000/svg" viewBox="-159 0 410 410"><style>.st0{fill:red}.st1{fill:#ffe53f}</style><circle class="st0" cx="44.5" cy="206.5" r="179.5"/><path class="st1" d="M45.5 0c-113.2 0-205 91.8-205 205s91.8 205 205 205 205-91.8 205-205S158.7 0 45.5 0zm113.8 211.9C134 314.2-35.4 357.6-113.3 251.4c29.8 28.5 81.8 31 114.8-3.1-19.3 2.8-33.4-16.1-9.6-26.4-21.4 2.3-33.2-9-38.1-18.7 5-5.2 10.5-7.7 21.2-8.4-23.4-5.5-32-16.9-34.7-30.8 6.5-1.6 14.6-2.9 19-2.3-20.5-10.7-27.6-26.8-26.5-38.9 36.6 13.6 59.9 24.5 79.4 34.9 7 3.7 14.7 10.4 23.4 18.8 11.1-29.4 24.9-59.7 48.4-74.8-.4 3.4-2.2 6.6-4.6 9.2 6.7-6.1 15.4-10.2 24.2-11.5-1 6.6-10.6 10.3-16.3 12.5 4.4-1.4 27.5-11.7 30.1-5.8 3 6.7-16 9.8-19.2 10.9-2.4.8-4.8 1.7-7.2 2.7 29.4-2.9 57.4 21.3 65.6 51.4.6 2.2 1.2 4.6 1.7 7.1 10.7 4 30.2-.2 36.5-4.1-4.5 10.7-16.3 18.6-33.7 20.1 8.4 3.5 24.2 5.4 35.1 3.5-6.9 7.6-18 14.4-36.9 14.2z"/></svg>