<?xml version="1.0" encoding="utf-8"?>
<!-- Generator: Adobe Illustrator 18.1.1, SVG Export Plug-In . SVG Version: 6.00 Build 0)  -->
<!DOCTYPE svg PUBLIC "-//W3C//DTD SVG 1.1//EN" "http://www.w3.org/Graphics/SVG/1.1/DTD/svg11.dtd">
<svg version="1.1" id="Layer_1" xmlns="http://www.w3.org/2000/svg" xmlns:xlink="http://www.w3.org/1999/xlink" x="0px" y="0px"
	 viewBox="0 0 410 410" enable-background="new 0 0 410 410" xml:space="preserve">
<circle fill="#FFFFFF" cx="195.2" cy="205" r="161.5"/>
<path fill="#3C9A98" d="M204.5,0C91.3,0-0.5,91.8-0.5,205s91.8,205,205,205s205-91.8,205-205S317.7,0,204.5,0z M261.9,131.2
	c-8.2,0-21.9,0-27.2,0c-5.2,0-13.8,6.4-13.8,10.4s0,30.6,0,30.6s36,0,40.3,0c-1.5,16.4-4.5,32.8-4.5,32.8H221v123h-49.2V205h-16.4
	v-32.8h16.4c0,0,0-29.8,0-35.7s2.5-46.3,53.5-46.3c6.8,0,20.3,0,36.7,0C261.9,106.6,261.9,123,261.9,131.2z"/>
</svg>
