<?xml version="1.0" encoding="utf-8"?>
<!-- Generator: Adobe Illustrator 18.1.1, SVG Export Plug-In . SVG Version: 6.00 Build 0)  -->
<!DOCTYPE svg PUBLIC "-//W3C//DTD SVG 1.1//EN" "http://www.w3.org/Graphics/SVG/1.1/DTD/svg11.dtd">
<svg version="1.1" id="Layer_1" xmlns="http://www.w3.org/2000/svg" xmlns:xlink="http://www.w3.org/1999/xlink" x="0px" y="0px"
	 viewBox="0 0 410 410" enable-background="new 0 0 410 410" xml:space="preserve">
<circle fill="#FFFFFF" cx="203.5" cy="206.5" r="179.5"/>
<g>
	<path fill="#3C9A98" d="M149.4,242.4c-28.6-0.3-54.2,17.4-54.2,38.8c0,21.7,20.7,39.9,49.3,39.9c40.2,0,54.2-17,54.2-38.7
		c0-2.6-0.3-5.2-0.9-7.7c-3.1-12.3-14.3-18.4-29.8-29.2C162.3,243.5,156,242.4,149.4,242.4z"/>
	<path fill="#3C9A98" d="M139.9,102.8c-19.2-0.6-32.1,18.7-28.8,43.9c3.3,25.2,21.6,46.1,40.8,46.7c19.2,0.6,32.1-19.4,28.8-44.6
		C177.4,123.6,159.1,103.4,139.9,102.8z"/>
	<path fill="#3C9A98" d="M204.5,0C91.3,0-0.5,91.8-0.5,205s91.8,205,205,205s205-91.8,205-205S317.7,0,204.5,0z M207.5,148.5
		c0,15.7-8.7,28.1-21,37.8c-12,9.4-14.3,13.3-14.3,21.3c0,6.8,12.9,18.4,19.6,23.2c19.7,13.9,26.1,26.8,26.1,48.4
		c0,26.9-26.1,53.7-73.2,53.7c-41.4,0-76.3-16.8-76.3-43.8c0-27.3,31.8-53.7,73.2-53.7c4.5,0,8.6-0.2,12.9-0.2
		c-5.7-5.5-10.1-12.3-10.1-20.6c0-4.9,1.6-9.8,3.8-14c-2.2,0.2-4.5,0-6.9,0c-34,0-56.8-24.7-56.8-54.7c0-29.3,31.4-55.7,64.8-55.7
		c18.6,0,74.5,0,74.5,0l-16.7,16.4h-23.6C199.1,106.6,207.5,129.7,207.5,148.5z M302.9,155.8v41h-8.2v-41h-49.2v-16.4h49.2V90.2h8.2
		v49.2h49.2v16.4L302.9,155.8L302.9,155.8z"/>
</g>
</svg>
