<?xml version="1.0" encoding="utf-8"?>
<!-- Generator: Adobe Illustrator 19.1.0, SVG Export Plug-In . SVG Version: 6.00 Build 0)  -->
<!DOCTYPE svg PUBLIC "-//W3C//DTD SVG 1.1//EN" "http://www.w3.org/Graphics/SVG/1.1/DTD/svg11.dtd">
<svg version="1.1" id="Layer_1" xmlns="http://www.w3.org/2000/svg" xmlns:xlink="http://www.w3.org/1999/xlink" x="0px" y="0px"
	 viewBox="-159 0 410 410" style="enable-background:new -159 0 410 410;" xml:space="preserve">
<style type="text/css">
	.st0{fill:#FF0000;}
	.st1{fill:#FFE53F;}
</style>
<circle class="st0" cx="45.5" cy="202.5" r="149.5"/>
<path class="st1" d="M46,0C-67.2,0-159,91.8-159,205s91.8,205,205,205s205-91.8,205-205S159.2,0,46,0z M-4.2,290h-41.5V156.4h41.5
	V290z M-25.2,140c-13.1,0-21.6-9.3-21.6-20.8c0-11.7,8.7-20.7,22.1-20.7s21.6,9,21.8,20.7C-2.8,130.7-11.3,140-25.2,140z M147.4,290
	h-41.5v-74c0-17.2-6-28.9-21-28.9c-11.5,0-18.3,7.9-21.3,15.5c-1.1,2.7-1.4,6.6-1.4,10.4v77H20.7v-91c0-16.7-0.5-30.6-1.1-42.6h36.1
	l1.9,18.6h0.8c5.5-8.7,18.9-21.6,41.3-21.6c27.3,0,47.8,18.3,47.8,57.6L147.4,290L147.4,290z"/>
</svg>
