<?xml version="1.0" encoding="utf-8"?>
<!-- Generator: Adobe Illustrator 17.1.0, SVG Export Plug-In . SVG Version: 6.00 Build 0)  -->
<!DOCTYPE svg PUBLIC "-//W3C//DTD SVG 1.1//EN" "http://www.w3.org/Graphics/SVG/1.1/DTD/svg11.dtd">
<svg version="1.1" id="Layer_1" xmlns="http://www.w3.org/2000/svg" xmlns:xlink="http://www.w3.org/1999/xlink" x="0px" y="0px"
	 viewBox="0 0 500 100" enable-background="new 0 0 500 100" xml:space="preserve">
<path fill="#FFFFFF" d="M290.926,21.761l-6.292,4.608c0,0-2.032-4.608-6.899-4.608l-6.413,8.268l0.726,0.814
	c0,0,1.09-3.253,4.357-0.273v41.948l4.794,5.37l4.118-4.631l-0.684-0.763V52.799l2.904,4.34l10.287-8.407V27.86
	C297.825,27.86,294.223,21.761,290.926,21.761 M289.462,50.797l-1.056,1.18l-3.954-4.966l-0.012-17.507c0,0,2.048-2.851,5.022,0.33
	V50.797z"/>
<path fill="#FFFFFF" d="M358.907,21.824l-11.422,16.745v33.725l4.955,5.561l4.25-4.805L356,72.294V55.315
	c0,0,2.007-3.952,4.707,0.078v17.068l4.849,5.427l4.308-4.823l-0.713-0.758V52.833c0,0-2.74-6.822-7.822-6.822l-5.191,5.581V30.816
	l1.177-1.783c0,0,1.454-1.086,3.045,1.629c1.801,2.324,7.269,5.27,10.314-3.722c0,0-2.632,1.241-4.637-1.627
	C364.028,22.445,363.228,21.888,358.907,21.824"/>
<path fill="#FFFFFF" d="M324.585,46.087l-6.925,9.486l0.661,0.791c0,0,1.379-2.462,2.941-0.524v16.878l4.555,5.112l3.953-4.424
	l-0.684-0.767V55.78c0,0,3.391-4.032,5.466-0.078V72.37l4.944,5.568l4.269-4.805l-0.698-0.763V53.066c0,0-1.979-7.055-8.237-7.055
	l-5.607,6.9v-1.55C329.223,51.361,328.6,46.087,324.585,46.087"/>
<path fill="#FFFFFF" d="M316.691,66.718c0,0-0.622-0.562-1.039,0.078c-0.553,0.852-6.286,8.209-12.137,1.479v-4.032
	c0,0,5.193-4.574,8.653-0.233l4.568-4.187v-8.54c0,0-1.385-5.196-8.72-5.196l-12.528,7.831v16.06l7.014,7.852l14.259-7.929
	C316.76,69.901,316.691,67.803,316.691,66.718 M303.515,54.925c0,0,2.907-4.498,5.193-0.929v5.284c0,0-2.285-0.387-4.706,3.024
	l-0.486-0.542V54.925z"/>
<path fill="#FFFFFF" d="M133.577,21.761l-6.294,4.608c0,0-2.031-4.608-6.898-4.608l-6.414,8.268l0.727,0.814
	c0,0,1.089-3.253,4.356-0.273v41.248l5.375,6.012l4.103-4.623l-1.249-1.411V52.799l2.905,4.34l10.286-8.407V27.86
	C140.474,27.86,136.872,21.761,133.577,21.761 M132.112,50.797l-1.054,1.18l-3.955-4.966l-0.014-17.507c0,0,2.048-2.851,5.024,0.33
	V50.797z"/>
<path fill="#FFFFFF" d="M156.237,21.824l-11.421,16.745v33.725l4.925,5.527l4.268-4.763l-0.679-0.764V55.315
	c0,0,2.007-3.952,4.707,0.078V72.37l4.838,5.433l4.313-4.832l-0.708-0.756V52.833c0,0-2.74-6.822-7.822-6.822l-5.191,5.581V30.816
	l1.176-1.783c0,0,1.454-1.086,3.047,1.629c1.8,2.324,7.268,5.27,10.313-3.722c0,0-2.629,1.241-4.638-1.627
	C161.359,22.445,160.556,21.888,156.237,21.824"/>
<path fill="#FFFFFF" d="M174.164,46.087l-6.927,9.486l0.662,0.791c0,0,1.379-2.462,2.942-0.524v16.878l4.555,5.112l3.952-4.424
	l-0.685-0.767V55.78c0,0,3.392-4.032,5.468-0.078V72.37l4.944,5.568l4.271-4.805l-0.701-0.763V53.066c0,0-1.978-7.055-8.237-7.055
	l-5.606,6.9v-1.55C178.802,51.361,178.178,46.087,174.164,46.087"/>
<path fill="#FFFFFF" d="M224.816,46.011l-6.277,9.529c0,0,0.6,0.385,0.741,0.21c0.971-1.21,1.955-2.063,3.043-0.855V72.45
	l4.824,5.437l4.238-4.76l-0.688-0.754V54.925c0,0,2.493-2.712,4.984,1.321v16.305l4.719,5.299l4.121-4.633l-0.673-0.744V56.168
	c0,0,1.731-4.496,5.192,0.697v15.692l4.732,5.293l4.08-4.596l-0.715-0.774V53.918c0,0-0.692-7.907-8.72-7.907l-4.984,7.364
	c0,0-1.565-7.364-7.475-7.364l-5.398,6.512C230.561,52.523,229.551,46.011,224.816,46.011"/>
<path fill="#FFFFFF" d="M207.838,45.934l-10.865,6.822l0.068,17.222l7.016,7.852l13.749-7.773V52.6
	C217.806,52.6,215.591,45.934,207.838,45.934 M209.292,71.762c0,0-1.661,2.325-4.153-1.938l0.012-16.293
	c0,0,2.342-1.861,4.141,2.095V71.762z"/>
<path fill="#FFFFFF" d="M465.054,21.824l-6.507,8.76v7.209h-3.529l-4.568,6.358l0.901,0.62c0,0,0.207-1.785,7.196-1.785v26.891
	l7.256,8.122c0,0,5.827-3.472,5.135-12.541h-0.762c0,0-0.76,4.961-3.252,3.255V42.367h4.154V37.87h-4.154V23.296
	C466.923,23.296,466.675,21.885,465.054,21.824"/>
<path fill="#FFFFFF" d="M403.028,21.761l-6.295,4.608c0,0-2.029-4.608-6.896-4.608l-6.415,8.268l0.726,0.814
	c0,0,1.091-3.253,4.357-0.273v41.932l4.789,5.386l4.123-4.624l-0.684-0.786V52.799l2.906,4.34l10.288-8.407V27.86
	C409.926,27.86,406.323,21.761,403.028,21.761 M401.563,50.797l-1.056,1.18l-3.954-4.966l-0.015-17.507c0,0,2.048-2.851,5.024,0.33
	V50.797z"/>
<path fill="#FFFFFF" d="M419.989,45.934l-10.868,6.822l0.07,17.222l7.019,7.852l13.746-7.773V52.6
	C429.956,52.6,427.741,45.934,419.989,45.934 M421.443,71.762c0,0-1.66,2.325-4.154-1.938l0.015-16.293c0,0,2.338-1.861,4.139,2.095
	V71.762z"/>
<path fill="#FFFFFF" d="M442.366,46.011l-7.902,4.945l-0.009,11.569l2.929,3.261c0,0,2.974-4.439,7.613-1.88
	c0,0,2.839,0.872,2.631,5.987c0,0-0.416,1.938-2.423,0.854c0,0-5.675-4.652-8.721-1.318c0,0-2.006,2.17-2.145,4.884
	c0,0,2.975-2.227,10.312,3.433c1.213-1.356,9.483-8.006,9.483-8.006s1.869-10.485-6.784-12.81c0,0,0.278,3.411-3.875,3.721
	c0,0-3.045-0.835-4.015-2.772v-5.977l0.484-0.231c0,0,3.738,4.109,8.999,2.248c0,0,4.153-2.87,1.731-7.831
	C450.674,46.087,448.32,50.119,442.366,46.011"/>
<path fill="#FFFFFF" d="M68.989,21.824L57.568,38.569v33.725l4.955,5.561l4.251-4.805l-0.692-0.756V55.315
	c0,0,2.008-3.952,4.708,0.078V72.37l4.849,5.427l4.307-4.823l-0.712-0.759V52.833c0,0-2.74-6.822-7.821-6.822l-5.192,5.581V30.816
	l1.177-1.783c0,0,1.454-1.086,3.046,1.629c1.8,2.324,7.268,5.27,10.314-3.722c0,0-2.63,1.241-4.638-1.627
	C74.111,22.445,73.31,21.888,68.989,21.824"/>
<path fill="#FFFFFF" d="M104.697,66.718c0,0-0.623-0.562-1.039,0.078c-0.553,0.852-6.287,8.209-12.136,1.479v-4.032
	c0,0,5.192-4.574,8.652-0.233l4.568-4.187v-8.54c0,0-1.384-5.196-8.72-5.196l-12.529,7.831v16.06l7.016,7.852l14.258-7.929
	C104.766,69.901,104.697,67.803,104.697,66.718 M91.522,54.925c0,0,2.907-4.498,5.192-0.929v5.284c0,0-2.285-0.387-4.707,3.024
	l-0.484-0.542V54.925z"/>
<polygon fill="#FFFFFF" points="44.814,38.569 44.814,72.294 49.767,77.855 54.018,73.05 53.327,72.294 53.276,30.604 "/>
<path fill="#FFFFFF" d="M29.644,31.231l0.514-1.433c0,0,20.36,6.214,23.504-7.709l9.846,2.971l-0.563,2.186l-1.814-0.604
	C61.13,26.642,54.758,45.396,29.644,31.231"/>
</svg>
