<?xml version="1.0" encoding="utf-8"?>
<!-- Generator: Adobe Illustrator 18.1.1, SVG Export Plug-In . SVG Version: 6.00 Build 0)  -->
<!DOCTYPE svg PUBLIC "-//W3C//DTD SVG 1.1//EN" "http://www.w3.org/Graphics/SVG/1.1/DTD/svg11.dtd">
<svg version="1.1" id="Layer_1" xmlns="http://www.w3.org/2000/svg" xmlns:xlink="http://www.w3.org/1999/xlink" x="0px" y="0px"
	 viewBox="-352 194 24 24" enable-background="new -352 194 24 24" xml:space="preserve">
<g>
	<path fill="#FFFFFF" d="M-347.9,208.1v-5.7h1.1l1.4,4.1c0.1,0.4,0.2,0.7,0.3,0.8c0.1-0.2,0.2-0.5,0.3-0.9l1.4-4h1v5.7h-0.7v-4.8
		l-1.7,4.8h-0.7l-1.7-4.9v4.9H-347.9z"/>
	<path fill="#FFFFFF" d="M-341.2,208.1v-5.7h2.1c0.4,0,0.8,0.1,1.1,0.2s0.5,0.3,0.6,0.5s0.2,0.5,0.2,0.8c0,0.2-0.1,0.5-0.2,0.7
		s-0.3,0.4-0.6,0.5c0.3,0.1,0.6,0.3,0.8,0.5s0.3,0.5,0.3,0.9c0,0.3-0.1,0.5-0.2,0.7s-0.3,0.4-0.4,0.5s-0.4,0.2-0.6,0.3
		c-0.3,0.1-0.6,0.1-0.9,0.1H-341.2z M-340.4,204.8h1.2c0.3,0,0.6,0,0.7-0.1c0.2-0.1,0.3-0.2,0.4-0.3s0.1-0.3,0.1-0.5
		c0-0.2,0-0.4-0.1-0.5s-0.2-0.2-0.4-0.3s-0.5-0.1-0.9-0.1h-1.1V204.8z M-340.4,207.4h1.4c0.2,0,0.4,0,0.5,0c0.2,0,0.3-0.1,0.4-0.2
		s0.2-0.2,0.3-0.3s0.1-0.3,0.1-0.5c0-0.2-0.1-0.4-0.2-0.6s-0.3-0.3-0.5-0.3s-0.5-0.1-0.8-0.1h-1.3V207.4z"/>
	<path fill="#FFFFFF" d="M-336.5,208.1l2.2-5.7h0.8l2.3,5.7h-0.9l-0.7-1.7h-2.4l-0.6,1.7H-336.5z M-334.8,205.8h1.9l-0.6-1.6
		c-0.2-0.5-0.3-0.9-0.4-1.2c-0.1,0.4-0.2,0.7-0.3,1.1L-334.8,205.8z"/>
</g>
</svg>
