<?xml version="1.0" encoding="utf-8"?>
<!-- Generator: Adobe Illustrator 19.1.0, SVG Export Plug-In . SVG Version: 6.00 Build 0)  -->
<!DOCTYPE svg PUBLIC "-//W3C//DTD SVG 1.1//EN" "http://www.w3.org/Graphics/SVG/1.1/DTD/svg11.dtd">
<svg version="1.1" id="Layer_1" xmlns="http://www.w3.org/2000/svg" xmlns:xlink="http://www.w3.org/1999/xlink" x="0px" y="0px"
	 viewBox="-159 0 410 410" style="enable-background:new -159 0 410 410;" xml:space="preserve">
<style type="text/css">
	.st0{fill:#FF0000;}
	.st1{fill:#FFE53F;}
</style>
<circle class="st0" cx="44.5" cy="206.5" r="179.5"/>
<path class="st1" d="M45.5,0c-113.2,0-205,91.8-205,205s91.8,205,205,205s205-91.8,205-205S158.7,0,45.5,0z M159.3,211.9
	C134,314.2-35.4,357.6-113.3,251.4c29.8,28.5,81.8,31,114.8-3.1c-19.3,2.8-33.4-16.1-9.6-26.4c-21.4,2.3-33.2-9-38.1-18.7
	c5-5.2,10.5-7.7,21.2-8.4c-23.4-5.5-32-16.9-34.7-30.8c6.5-1.6,14.6-2.9,19-2.3c-20.5-10.7-27.6-26.8-26.5-38.9
	c36.6,13.6,59.9,24.5,79.4,34.9c7,3.7,14.7,10.4,23.4,18.8c11.1-29.4,24.9-59.7,48.4-74.8c-0.4,3.4-2.2,6.6-4.6,9.2
	c6.7-6.1,15.4-10.2,24.2-11.5c-1,6.6-10.6,10.3-16.3,12.5c4.4-1.4,27.5-11.7,30.1-5.8c3,6.7-16,9.8-19.2,10.9
	c-2.4,0.8-4.8,1.7-7.2,2.7c29.4-2.9,57.4,21.3,65.6,51.4c0.6,2.2,1.2,4.6,1.7,7.1c10.7,4,30.2-0.2,36.5-4.1
	c-4.5,10.7-16.3,18.6-33.7,20.1c8.4,3.5,24.2,5.4,35.1,3.5C189.3,205.3,178.2,212.1,159.3,211.9z"/>
</svg>
